<mxfile host="Electron" modified="2024-01-19T21:01:30.982Z" agent="Mozilla/5.0 (Windows NT 10.0; Win64; x64) AppleWebKit/537.36 (KHTML, like Gecko) draw.io/22.1.16 Chrome/120.0.6099.109 Electron/28.1.0 Safari/537.36" etag="X_UvGINpqHMrj9wwezyS" version="22.1.16" type="device">
  <diagram name="Page-1" id="ZmPXJpfw8iRoa6MUchyO">
    <mxGraphModel dx="1838" dy="570" grid="1" gridSize="10" guides="1" tooltips="1" connect="1" arrows="1" fold="1" page="1" pageScale="1" pageWidth="850" pageHeight="1100" math="0" shadow="0">
      <root>
        <mxCell id="0" />
        <mxCell id="1" parent="0" />
        <mxCell id="kpndK4-d9jMEPcOmxweq-1" value="class Book" style="swimlane;fontStyle=1;align=center;verticalAlign=top;childLayout=stackLayout;horizontal=1;startSize=26;horizontalStack=0;resizeParent=1;resizeParentMax=0;resizeLast=0;collapsible=1;marginBottom=0;whiteSpace=wrap;html=1;fontFamily=Tahoma;fillColor=#f8cecc;strokeColor=#b85450;" vertex="1" parent="1">
          <mxGeometry x="100" y="530" width="190" height="148" as="geometry" />
        </mxCell>
        <mxCell id="kpndK4-d9jMEPcOmxweq-2" value="+ ID: int&lt;br&gt;+ ISBN: string&lt;br&gt;+ Name: string&lt;br&gt;+ ImageLinkReferences: string&lt;br&gt;+ Publisher:&amp;nbsp;&lt;br&gt;+ YearOfPublishing: time.Year&lt;br&gt;+ Author" style="text;strokeColor=none;fillColor=none;align=left;verticalAlign=top;spacingLeft=4;spacingRight=4;overflow=hidden;rotatable=0;points=[[0,0.5],[1,0.5]];portConstraint=eastwest;whiteSpace=wrap;html=1;fontFamily=Tahoma;" vertex="1" parent="kpndK4-d9jMEPcOmxweq-1">
          <mxGeometry y="26" width="190" height="114" as="geometry" />
        </mxCell>
        <mxCell id="kpndK4-d9jMEPcOmxweq-3" value="" style="line;strokeWidth=1;fillColor=none;align=left;verticalAlign=middle;spacingTop=-1;spacingLeft=3;spacingRight=3;rotatable=0;labelPosition=right;points=[];portConstraint=eastwest;strokeColor=inherit;fontFamily=Tahoma;" vertex="1" parent="kpndK4-d9jMEPcOmxweq-1">
          <mxGeometry y="140" width="190" height="8" as="geometry" />
        </mxCell>
        <mxCell id="kpndK4-d9jMEPcOmxweq-5" value="class Author" style="swimlane;fontStyle=1;align=center;verticalAlign=top;childLayout=stackLayout;horizontal=1;startSize=26;horizontalStack=0;resizeParent=1;resizeParentMax=0;resizeLast=0;collapsible=1;marginBottom=0;whiteSpace=wrap;html=1;fontFamily=Tahoma;fillColor=#f8cecc;strokeColor=#b85450;" vertex="1" parent="1">
          <mxGeometry x="425" y="530" width="190" height="78" as="geometry" />
        </mxCell>
        <mxCell id="kpndK4-d9jMEPcOmxweq-6" value="+ ID: int&lt;br&gt;+ Name: string" style="text;strokeColor=none;fillColor=none;align=left;verticalAlign=top;spacingLeft=4;spacingRight=4;overflow=hidden;rotatable=0;points=[[0,0.5],[1,0.5]];portConstraint=eastwest;whiteSpace=wrap;html=1;fontFamily=Tahoma;" vertex="1" parent="kpndK4-d9jMEPcOmxweq-5">
          <mxGeometry y="26" width="190" height="44" as="geometry" />
        </mxCell>
        <mxCell id="kpndK4-d9jMEPcOmxweq-7" value="" style="line;strokeWidth=1;fillColor=none;align=left;verticalAlign=middle;spacingTop=-1;spacingLeft=3;spacingRight=3;rotatable=0;labelPosition=right;points=[];portConstraint=eastwest;strokeColor=inherit;fontFamily=Tahoma;" vertex="1" parent="kpndK4-d9jMEPcOmxweq-5">
          <mxGeometry y="70" width="190" height="8" as="geometry" />
        </mxCell>
        <mxCell id="kpndK4-d9jMEPcOmxweq-8" value="class Publisher" style="swimlane;fontStyle=1;align=center;verticalAlign=top;childLayout=stackLayout;horizontal=1;startSize=26;horizontalStack=0;resizeParent=1;resizeParentMax=0;resizeLast=0;collapsible=1;marginBottom=0;whiteSpace=wrap;html=1;fontFamily=Tahoma;fillColor=#f8cecc;strokeColor=#b85450;" vertex="1" parent="1">
          <mxGeometry x="390" y="670" width="190" height="78" as="geometry" />
        </mxCell>
        <mxCell id="kpndK4-d9jMEPcOmxweq-9" value="+ ID: int&lt;br&gt;+ Name: string" style="text;strokeColor=none;fillColor=none;align=left;verticalAlign=top;spacingLeft=4;spacingRight=4;overflow=hidden;rotatable=0;points=[[0,0.5],[1,0.5]];portConstraint=eastwest;whiteSpace=wrap;html=1;fontFamily=Tahoma;" vertex="1" parent="kpndK4-d9jMEPcOmxweq-8">
          <mxGeometry y="26" width="190" height="44" as="geometry" />
        </mxCell>
        <mxCell id="kpndK4-d9jMEPcOmxweq-10" value="" style="line;strokeWidth=1;fillColor=none;align=left;verticalAlign=middle;spacingTop=-1;spacingLeft=3;spacingRight=3;rotatable=0;labelPosition=right;points=[];portConstraint=eastwest;strokeColor=inherit;fontFamily=Tahoma;" vertex="1" parent="kpndK4-d9jMEPcOmxweq-8">
          <mxGeometry y="70" width="190" height="8" as="geometry" />
        </mxCell>
        <mxCell id="kpndK4-d9jMEPcOmxweq-11" value="class User" style="swimlane;fontStyle=1;align=center;verticalAlign=top;childLayout=stackLayout;horizontal=1;startSize=26;horizontalStack=0;resizeParent=1;resizeParentMax=0;resizeLast=0;collapsible=1;marginBottom=0;whiteSpace=wrap;html=1;fontFamily=Tahoma;fillColor=#f8cecc;strokeColor=#b85450;" vertex="1" parent="1">
          <mxGeometry x="-30" y="370" width="190" height="108" as="geometry" />
        </mxCell>
        <mxCell id="kpndK4-d9jMEPcOmxweq-12" value="+ ID: int&lt;br&gt;+ Name: string&lt;br&gt;+ RegistrationID: int&lt;br&gt;+ UsertypeId: int" style="text;strokeColor=none;fillColor=none;align=left;verticalAlign=top;spacingLeft=4;spacingRight=4;overflow=hidden;rotatable=0;points=[[0,0.5],[1,0.5]];portConstraint=eastwest;whiteSpace=wrap;html=1;fontFamily=Tahoma;" vertex="1" parent="kpndK4-d9jMEPcOmxweq-11">
          <mxGeometry y="26" width="190" height="74" as="geometry" />
        </mxCell>
        <mxCell id="kpndK4-d9jMEPcOmxweq-13" value="" style="line;strokeWidth=1;fillColor=none;align=left;verticalAlign=middle;spacingTop=-1;spacingLeft=3;spacingRight=3;rotatable=0;labelPosition=right;points=[];portConstraint=eastwest;strokeColor=inherit;fontFamily=Tahoma;" vertex="1" parent="kpndK4-d9jMEPcOmxweq-11">
          <mxGeometry y="100" width="190" height="8" as="geometry" />
        </mxCell>
        <mxCell id="kpndK4-d9jMEPcOmxweq-14" value="class BookTransactionRequest" style="swimlane;fontStyle=1;align=center;verticalAlign=top;childLayout=stackLayout;horizontal=1;startSize=26;horizontalStack=0;resizeParent=1;resizeParentMax=0;resizeLast=0;collapsible=1;marginBottom=0;whiteSpace=wrap;html=1;fontFamily=Tahoma;fillColor=#f8cecc;strokeColor=#b85450;" vertex="1" parent="1">
          <mxGeometry x="-170" y="580" width="220" height="88" as="geometry" />
        </mxCell>
        <mxCell id="kpndK4-d9jMEPcOmxweq-15" value="+ ID: int&lt;br&gt;+ BookId: int&lt;br&gt;+ TransactionType: string" style="text;strokeColor=none;fillColor=none;align=left;verticalAlign=top;spacingLeft=4;spacingRight=4;overflow=hidden;rotatable=0;points=[[0,0.5],[1,0.5]];portConstraint=eastwest;whiteSpace=wrap;html=1;fontFamily=Tahoma;" vertex="1" parent="kpndK4-d9jMEPcOmxweq-14">
          <mxGeometry y="26" width="220" height="54" as="geometry" />
        </mxCell>
        <mxCell id="kpndK4-d9jMEPcOmxweq-16" value="" style="line;strokeWidth=1;fillColor=none;align=left;verticalAlign=middle;spacingTop=-1;spacingLeft=3;spacingRight=3;rotatable=0;labelPosition=right;points=[];portConstraint=eastwest;strokeColor=inherit;fontFamily=Tahoma;" vertex="1" parent="kpndK4-d9jMEPcOmxweq-14">
          <mxGeometry y="80" width="220" height="8" as="geometry" />
        </mxCell>
        <mxCell id="kpndK4-d9jMEPcOmxweq-17" value="class BookCatalog" style="swimlane;fontStyle=1;align=center;verticalAlign=top;childLayout=stackLayout;horizontal=1;startSize=26;horizontalStack=0;resizeParent=1;resizeParentMax=0;resizeLast=0;collapsible=1;marginBottom=0;whiteSpace=wrap;html=1;fontFamily=Tahoma;fillColor=#f8cecc;strokeColor=#b85450;" vertex="1" parent="1">
          <mxGeometry x="280" y="360" width="190" height="98" as="geometry" />
        </mxCell>
        <mxCell id="kpndK4-d9jMEPcOmxweq-18" value="+ ID: int&lt;br&gt;+ BookID: int&lt;br&gt;+ Quantity: int&lt;br&gt;" style="text;strokeColor=none;fillColor=none;align=left;verticalAlign=top;spacingLeft=4;spacingRight=4;overflow=hidden;rotatable=0;points=[[0,0.5],[1,0.5]];portConstraint=eastwest;whiteSpace=wrap;html=1;fontFamily=Tahoma;" vertex="1" parent="kpndK4-d9jMEPcOmxweq-17">
          <mxGeometry y="26" width="190" height="64" as="geometry" />
        </mxCell>
        <mxCell id="kpndK4-d9jMEPcOmxweq-19" value="" style="line;strokeWidth=1;fillColor=none;align=left;verticalAlign=middle;spacingTop=-1;spacingLeft=3;spacingRight=3;rotatable=0;labelPosition=right;points=[];portConstraint=eastwest;strokeColor=inherit;fontFamily=Tahoma;" vertex="1" parent="kpndK4-d9jMEPcOmxweq-17">
          <mxGeometry y="90" width="190" height="8" as="geometry" />
        </mxCell>
        <mxCell id="kpndK4-d9jMEPcOmxweq-20" value="class SKU" style="swimlane;fontStyle=1;align=center;verticalAlign=top;childLayout=stackLayout;horizontal=1;startSize=26;horizontalStack=0;resizeParent=1;resizeParentMax=0;resizeLast=0;collapsible=1;marginBottom=0;whiteSpace=wrap;html=1;fontFamily=Tahoma;fillColor=#f8cecc;strokeColor=#b85450;" vertex="1" parent="1">
          <mxGeometry x="520" y="350" width="190" height="148" as="geometry" />
        </mxCell>
        <mxCell id="kpndK4-d9jMEPcOmxweq-21" value="+ ID: int&lt;br&gt;+ BookID: int&lt;br&gt;+ Quantity: int&lt;br&gt;" style="text;strokeColor=none;fillColor=none;align=left;verticalAlign=top;spacingLeft=4;spacingRight=4;overflow=hidden;rotatable=0;points=[[0,0.5],[1,0.5]];portConstraint=eastwest;whiteSpace=wrap;html=1;fontFamily=Tahoma;" vertex="1" parent="kpndK4-d9jMEPcOmxweq-20">
          <mxGeometry y="26" width="190" height="114" as="geometry" />
        </mxCell>
        <mxCell id="kpndK4-d9jMEPcOmxweq-22" value="" style="line;strokeWidth=1;fillColor=none;align=left;verticalAlign=middle;spacingTop=-1;spacingLeft=3;spacingRight=3;rotatable=0;labelPosition=right;points=[];portConstraint=eastwest;strokeColor=inherit;fontFamily=Tahoma;" vertex="1" parent="kpndK4-d9jMEPcOmxweq-20">
          <mxGeometry y="140" width="190" height="8" as="geometry" />
        </mxCell>
        <mxCell id="kpndK4-d9jMEPcOmxweq-26" value="class BookSubmissionRequest" style="swimlane;fontStyle=1;align=center;verticalAlign=top;childLayout=stackLayout;horizontal=1;startSize=26;horizontalStack=0;resizeParent=1;resizeParentMax=0;resizeLast=0;collapsible=1;marginBottom=0;whiteSpace=wrap;html=1;fontFamily=Tahoma;fillColor=#f8cecc;strokeColor=#b85450;" vertex="1" parent="1">
          <mxGeometry x="375" y="780" width="220" height="148" as="geometry" />
        </mxCell>
        <mxCell id="kpndK4-d9jMEPcOmxweq-27" value="+ ID: int&lt;br&gt;+ BookId: int&lt;br&gt;+&amp;nbsp;" style="text;strokeColor=none;fillColor=none;align=left;verticalAlign=top;spacingLeft=4;spacingRight=4;overflow=hidden;rotatable=0;points=[[0,0.5],[1,0.5]];portConstraint=eastwest;whiteSpace=wrap;html=1;fontFamily=Tahoma;" vertex="1" parent="kpndK4-d9jMEPcOmxweq-26">
          <mxGeometry y="26" width="220" height="114" as="geometry" />
        </mxCell>
        <mxCell id="kpndK4-d9jMEPcOmxweq-28" value="" style="line;strokeWidth=1;fillColor=none;align=left;verticalAlign=middle;spacingTop=-1;spacingLeft=3;spacingRight=3;rotatable=0;labelPosition=right;points=[];portConstraint=eastwest;strokeColor=inherit;fontFamily=Tahoma;" vertex="1" parent="kpndK4-d9jMEPcOmxweq-26">
          <mxGeometry y="140" width="220" height="8" as="geometry" />
        </mxCell>
        <mxCell id="kpndK4-d9jMEPcOmxweq-29" value="class FineTransaction" style="swimlane;fontStyle=1;align=center;verticalAlign=top;childLayout=stackLayout;horizontal=1;startSize=26;horizontalStack=0;resizeParent=1;resizeParentMax=0;resizeLast=0;collapsible=1;marginBottom=0;whiteSpace=wrap;html=1;fontFamily=Tahoma;fillColor=#f8cecc;strokeColor=#b85450;" vertex="1" parent="1">
          <mxGeometry x="640" y="600" width="190" height="108" as="geometry" />
        </mxCell>
        <mxCell id="kpndK4-d9jMEPcOmxweq-30" value="+ ID: int&lt;br&gt;+ RequestId: int&lt;br&gt;+ EntryType: string&lt;br&gt;+ Amount: float64" style="text;strokeColor=none;fillColor=none;align=left;verticalAlign=top;spacingLeft=4;spacingRight=4;overflow=hidden;rotatable=0;points=[[0,0.5],[1,0.5]];portConstraint=eastwest;whiteSpace=wrap;html=1;fontFamily=Tahoma;" vertex="1" parent="kpndK4-d9jMEPcOmxweq-29">
          <mxGeometry y="26" width="190" height="74" as="geometry" />
        </mxCell>
        <mxCell id="kpndK4-d9jMEPcOmxweq-31" value="" style="line;strokeWidth=1;fillColor=none;align=left;verticalAlign=middle;spacingTop=-1;spacingLeft=3;spacingRight=3;rotatable=0;labelPosition=right;points=[];portConstraint=eastwest;strokeColor=inherit;fontFamily=Tahoma;" vertex="1" parent="kpndK4-d9jMEPcOmxweq-29">
          <mxGeometry y="100" width="190" height="8" as="geometry" />
        </mxCell>
        <mxCell id="kpndK4-d9jMEPcOmxweq-32" value="class Settlement" style="swimlane;fontStyle=1;align=center;verticalAlign=top;childLayout=stackLayout;horizontal=1;startSize=26;horizontalStack=0;resizeParent=1;resizeParentMax=0;resizeLast=0;collapsible=1;marginBottom=0;whiteSpace=wrap;html=1;fontFamily=Tahoma;fillColor=#f8cecc;strokeColor=#b85450;" vertex="1" parent="1">
          <mxGeometry x="640" y="770" width="190" height="108" as="geometry" />
        </mxCell>
        <mxCell id="kpndK4-d9jMEPcOmxweq-33" value="+ ID: int&lt;br&gt;+ RequestId: int&lt;br&gt;+ Amount: float64" style="text;strokeColor=none;fillColor=none;align=left;verticalAlign=top;spacingLeft=4;spacingRight=4;overflow=hidden;rotatable=0;points=[[0,0.5],[1,0.5]];portConstraint=eastwest;whiteSpace=wrap;html=1;fontFamily=Tahoma;" vertex="1" parent="kpndK4-d9jMEPcOmxweq-32">
          <mxGeometry y="26" width="190" height="74" as="geometry" />
        </mxCell>
        <mxCell id="kpndK4-d9jMEPcOmxweq-34" value="" style="line;strokeWidth=1;fillColor=none;align=left;verticalAlign=middle;spacingTop=-1;spacingLeft=3;spacingRight=3;rotatable=0;labelPosition=right;points=[];portConstraint=eastwest;strokeColor=inherit;fontFamily=Tahoma;" vertex="1" parent="kpndK4-d9jMEPcOmxweq-32">
          <mxGeometry y="100" width="190" height="8" as="geometry" />
        </mxCell>
        <mxCell id="kpndK4-d9jMEPcOmxweq-35" value="class Accrual" style="swimlane;fontStyle=1;align=center;verticalAlign=top;childLayout=stackLayout;horizontal=1;startSize=26;horizontalStack=0;resizeParent=1;resizeParentMax=0;resizeLast=0;collapsible=1;marginBottom=0;whiteSpace=wrap;html=1;fontFamily=Tahoma;fillColor=#f8cecc;strokeColor=#b85450;" vertex="1" parent="1">
          <mxGeometry x="870" y="670" width="190" height="88" as="geometry" />
        </mxCell>
        <mxCell id="kpndK4-d9jMEPcOmxweq-36" value="+ ID: int&lt;br&gt;+ SettlementId: int&lt;br&gt;+ FineTransactionId: int" style="text;strokeColor=none;fillColor=none;align=left;verticalAlign=top;spacingLeft=4;spacingRight=4;overflow=hidden;rotatable=0;points=[[0,0.5],[1,0.5]];portConstraint=eastwest;whiteSpace=wrap;html=1;fontFamily=Tahoma;" vertex="1" parent="kpndK4-d9jMEPcOmxweq-35">
          <mxGeometry y="26" width="190" height="54" as="geometry" />
        </mxCell>
        <mxCell id="kpndK4-d9jMEPcOmxweq-37" value="" style="line;strokeWidth=1;fillColor=none;align=left;verticalAlign=middle;spacingTop=-1;spacingLeft=3;spacingRight=3;rotatable=0;labelPosition=right;points=[];portConstraint=eastwest;strokeColor=inherit;fontFamily=Tahoma;" vertex="1" parent="kpndK4-d9jMEPcOmxweq-35">
          <mxGeometry y="80" width="190" height="8" as="geometry" />
        </mxCell>
      </root>
    </mxGraphModel>
  </diagram>
</mxfile>
